<?xml version="1.0" standalone="no"?>
<!DOCTYPE svg PUBLIC "-//W3C//DTD SVG 20010904//EN"
 "http://www.w3.org/TR/2001/REC-SVG-20010904/DTD/svg10.dtd">
<svg version="1.0" xmlns="http://www.w3.org/2000/svg"
 width="1200.000000pt" height="1200.000000pt" viewBox="0 0 1200.000000 1200.000000"
 preserveAspectRatio="xMidYMid meet">
<metadata>
Created by potrace 1.14, written by Peter Selinger 2001-2017
</metadata>
<g transform="translate(0.000000,1200.000000) scale(0.100000,-0.100000)"
fill="#000000" stroke="none">
<path d="M5936 11154 c-4 -10 -12 -14 -22 -10 -14 5 -15 4 -4 -9 11 -13 10
-14 -4 -9 -9 3 -16 11 -16 18 0 6 -5 4 -10 -4 -5 -8 -10 -11 -10 -6 0 5 -8 2
-17 -5 -10 -8 -14 -9 -10 -2 4 6 3 14 -3 18 -5 3 -10 1 -10 -4 0 -15 -43 -14
-59 2 -10 10 -11 9 -6 -5 5 -13 2 -15 -14 -11 -12 3 -28 0 -36 -7 -13 -11 -14
-10 -10 1 4 10 -4 14 -25 15 -16 1 -30 -3 -30 -8 0 -5 -9 -4 -20 2 -14 7 -20
7 -20 0 0 -5 -5 -10 -11 -10 -5 0 -8 4 -5 9 4 5 -3 7 -14 4 -11 -3 -17 -10
-13 -17 4 -6 -1 -5 -10 3 -14 11 -20 11 -32 1 -9 -7 -15 -8 -15 -2 0 5 -11 9
-24 8 -15 0 -21 -5 -16 -11 6 -7 -1 -10 -18 -9 -15 1 -37 -3 -50 -7 -13 -5
-21 -5 -18 0 3 4 -6 6 -19 3 -14 -2 -25 -9 -25 -16 0 -6 -5 -4 -10 4 -7 11
-10 11 -10 2 0 -7 -4 -11 -9 -7 -5 3 -13 1 -16 -5 -5 -8 -11 -7 -21 1 -11 9
-14 9 -14 -1 0 -9 -4 -9 -17 1 -11 10 -14 10 -9 2 5 -9 0 -13 -13 -13 -12 0
-21 -6 -21 -12 0 -9 -4 -8 -10 2 -6 9 -10 10 -10 3 0 -7 -10 -17 -22 -23 -21
-10 -21 -10 -5 3 23 19 22 30 -2 17 -26 -13 -34 -13 -25 2 5 7 3 8 -5 4 -7 -5
-10 -14 -8 -21 4 -8 -4 -11 -24 -9 -18 2 -28 0 -24 -6 3 -6 -1 -7 -9 -4 -9 3
-14 10 -11 14 3 5 -2 7 -11 6 -8 -1 -20 -9 -24 -17 -11 -16 -41 -19 -53 -4 -5
6 -7 1 -4 -12 4 -19 3 -21 -15 -10 -16 9 -22 9 -25 0 -3 -7 -9 -13 -14 -13 -6
0 -7 6 -3 13 5 8 3 8 -9 -2 -9 -7 -26 -11 -37 -8 -11 3 -18 1 -14 -4 5 -9 1
-11 -33 -12 -10 -1 -22 -7 -26 -15 -7 -11 -11 -11 -25 0 -9 7 -13 8 -9 2 10
-17 -21 -26 -45 -13 -13 7 -18 7 -14 1 3 -6 2 -13 -4 -17 -5 -3 -10 -1 -10 5
0 6 -5 8 -10 5 -6 -4 -8 -11 -4 -16 3 -5 2 -9 -3 -8 -4 1 -12 0 -18 -1 -5 -1
-14 -3 -20 -5 -5 -1 -20 -3 -33 -3 -13 -1 -20 -6 -17 -12 3 -5 1 -10 -4 -10
-6 0 -11 5 -11 12 0 6 -9 2 -20 -10 -23 -25 -40 -28 -40 -9 0 8 -3 7 -9 -3 -6
-8 -7 -18 -5 -22 3 -4 -2 -5 -11 -1 -14 5 -14 8 -3 15 10 8 10 9 -2 5 -8 -2
-14 -11 -14 -20 1 -9 -4 -13 -11 -10 -7 2 -15 -4 -18 -14 -5 -17 -5 -17 -6 0
0 10 -7 17 -13 14 -7 -2 -12 -9 -11 -14 1 -6 -10 -8 -24 -5 -20 4 -24 2 -18
-9 7 -11 5 -11 -10 1 -11 9 -16 10 -11 3 4 -8 2 -13 -4 -13 -6 0 -8 -4 -5 -10
4 -6 -1 -7 -11 -3 -11 4 -13 8 -6 11 7 2 12 8 12 14 0 6 -6 5 -15 -2 -9 -7
-14 -19 -11 -27 4 -9 2 -11 -7 -6 -21 13 -34 11 -33 -4 0 -9 -5 -18 -13 -21
-8 -3 -11 0 -7 7 4 6 2 11 -3 11 -6 0 -12 -4 -12 -10 -1 -5 -2 -14 -3 -20 -1
-11 -18 -12 -26 -3 -3 4 1 3 9 -2 9 -5 12 -4 8 3 -8 12 -32 10 -44 -3 -4 -4
-2 -5 6 0 9 5 12 4 8 -2 -4 -5 -19 -9 -34 -8 -15 1 -37 -3 -48 -8 -18 -9 -19
-9 -6 7 12 14 12 16 -3 10 -9 -3 -16 -14 -17 -23 0 -12 -2 -12 -9 4 l-9 20 0
-20 c-1 -17 -3 -18 -11 -5 -9 13 -12 13 -23 0 -6 -9 -22 -15 -34 -14 -14 1
-20 -3 -16 -13 4 -9 0 -11 -13 -6 -10 4 -15 2 -11 -4 3 -5 1 -10 -6 -11 -39
-3 -68 -10 -75 -17 -4 -4 -1 -5 6 -1 7 4 12 2 12 -6 0 -16 -37 -18 -60 -4 -13
9 -13 8 -1 -8 13 -16 13 -17 -5 -14 -10 1 -18 -2 -17 -8 1 -6 -11 -10 -28 -9
-16 1 -29 -3 -29 -9 0 -6 -9 -17 -21 -24 -12 -8 -18 -9 -14 -3 3 6 1 11 -4 11
-6 0 -11 -5 -11 -11 0 -6 -7 -9 -14 -6 -10 4 -13 1 -10 -7 4 -9 -3 -13 -21
-11 -19 3 -24 0 -16 -9 7 -9 1 -11 -24 -11 -30 1 -33 -1 -22 -14 9 -12 9 -13
0 -7 -8 4 -13 2 -13 -6 0 -9 -3 -9 -10 2 -8 13 -14 8 -12 -11 1 -4 -6 -6 -16
-5 -9 0 -16 -5 -14 -12 1 -8 -2 -11 -8 -7 -6 4 -17 1 -25 -5 -8 -6 -20 -8 -27
-4 -10 6 -11 5 -1 -7 10 -13 10 -16 -2 -17 -8 -1 -21 -3 -29 -4 -8 -1 -12 -8
-8 -17 5 -13 3 -14 -10 -3 -13 11 -16 10 -14 -5 1 -12 -5 -17 -18 -15 -12 2
-15 -1 -11 -8 5 -9 0 -8 -16 1 -21 11 -23 11 -11 -4 11 -13 10 -16 -8 -22 -11
-3 -18 -10 -15 -14 2 -5 -7 -8 -22 -8 -16 0 -34 -10 -45 -23 -11 -14 -18 -17
-19 -9 0 8 -5 3 -10 -11 -8 -20 -12 -22 -19 -10 -8 13 -10 12 -10 -2 0 -10 -5
-18 -11 -18 -5 0 -7 5 -3 12 4 7 3 8 -5 4 -6 -4 -9 -12 -6 -17 4 -5 1 -10 -4
-10 -6 -1 -17 -2 -23 -3 -7 -1 -12 -8 -10 -15 2 -9 -3 -11 -13 -7 -9 3 -13 2
-10 -4 3 -6 -2 -10 -12 -10 -15 0 -16 -2 -3 -11 12 -9 11 -10 -7 -6 -14 3 -21
0 -20 -7 1 -6 -6 -10 -15 -10 -11 1 -15 -5 -13 -20 4 -21 4 -21 -10 -2 -14 18
-15 18 -15 2 0 -10 -12 -21 -30 -28 -24 -8 -28 -13 -20 -23 9 -11 6 -12 -11
-8 -17 5 -20 3 -14 -8 7 -12 6 -12 -7 -1 -13 10 -18 10 -24 1 -5 -8 -3 -9 6
-4 9 6 11 4 6 -4 -5 -7 -14 -10 -22 -7 -8 3 -13 0 -11 -6 1 -6 -9 -14 -23 -18
-17 -4 -24 -12 -22 -24 2 -12 -1 -16 -9 -10 -9 5 -10 2 -5 -11 5 -14 4 -16 -7
-7 -17 14 -28 6 -20 -14 3 -8 2 -14 -3 -13 -25 4 -36 -2 -30 -17 5 -14 4 -15
-8 -5 -11 9 -16 9 -22 0 -5 -8 -3 -9 7 -4 12 8 12 6 0 -8 -7 -9 -17 -15 -21
-12 -5 3 -12 -4 -15 -16 -6 -17 -9 -19 -16 -8 -6 10 -9 8 -9 -10 0 -20 -2 -22
-15 -11 -13 11 -14 10 -9 -5 5 -13 4 -16 -4 -11 -7 4 -12 1 -12 -10 0 -13 -3
-14 -15 -4 -12 10 -14 8 -10 -9 2 -14 -1 -18 -11 -14 -8 3 -18 -4 -23 -18 -5
-13 -10 -21 -10 -17 -2 13 -51 -39 -51 -53 0 -12 -2 -12 -9 -1 -7 11 -9 10
-15 -3 -3 -9 -11 -13 -17 -9 -8 5 -9 3 -4 -6 5 -8 2 -17 -7 -24 -8 -6 -17 -15
-19 -21 -2 -5 -11 -9 -21 -9 -10 1 -14 -4 -11 -12 3 -8 0 -14 -6 -14 -6 0 -26
-15 -45 -34 -20 -18 -38 -31 -41 -28 -3 4 -3 -2 1 -12 5 -13 4 -17 -4 -12 -6
3 -13 -3 -17 -14 -4 -11 -11 -17 -17 -14 -7 5 -9 1 -5 -9 4 -12 2 -14 -10 -10
-9 4 -14 2 -10 -3 3 -6 -5 -18 -19 -28 -24 -19 -35 -44 -12 -30 7 4 8 3 4 -5
-6 -9 -11 -9 -22 0 -12 10 -13 9 -8 -5 5 -12 2 -15 -12 -9 -12 4 -15 3 -10 -5
4 -7 -4 -23 -17 -36 -14 -14 -22 -27 -19 -30 5 -5 -13 -10 -29 -8 -4 1 -6 -6
-5 -16 0 -10 -5 -16 -13 -14 -12 3 -12 0 -1 -13 11 -13 10 -15 -3 -10 -8 4
-18 1 -23 -6 -5 -8 -3 -10 7 -4 12 8 12 6 0 -8 -7 -9 -18 -14 -24 -10 -5 3 -7
1 -4 -4 4 -6 -9 -27 -28 -48 -19 -20 -33 -41 -29 -46 3 -5 2 -8 -3 -7 -4 2
-19 -6 -33 -16 -17 -13 -19 -16 -6 -12 16 5 17 4 6 -9 -7 -8 -17 -12 -23 -8
-6 4 -8 0 -4 -10 3 -10 2 -17 -3 -17 -6 0 -10 5 -10 12 0 6 -3 8 -6 5 -4 -4
-1 -13 6 -22 11 -13 10 -14 -5 -9 -14 6 -16 4 -10 -6 6 -9 4 -12 -7 -8 -8 4
-15 0 -15 -8 0 -7 5 -10 10 -7 6 3 7 1 3 -5 -4 -7 -15 -12 -24 -12 -15 0 -15
-2 -2 -10 12 -7 12 -10 1 -10 -8 0 -11 -6 -7 -16 6 -15 4 -15 -11 -3 -11 9
-14 10 -9 2 4 -7 3 -13 -3 -13 -5 0 -8 -9 -6 -21 4 -18 2 -19 -11 -8 -8 7 -14
8 -13 3 4 -21 -2 -35 -12 -28 -8 4 -9 -1 -4 -16 5 -15 4 -20 -4 -16 -6 4 -11
0 -11 -9 0 -9 -4 -13 -10 -10 -5 3 -10 -3 -10 -14 0 -11 -9 -25 -20 -31 -11
-6 -19 -14 -19 -18 1 -4 1 -16 0 -27 -1 -17 -3 -18 -12 -5 -9 12 -10 11 -6 -8
3 -14 -1 -27 -13 -35 -9 -6 -19 -16 -21 -22 -2 -5 -7 -9 -11 -8 -4 2 -5 -4 -2
-12 4 -9 0 -15 -7 -15 -11 0 -11 -3 1 -11 12 -9 11 -10 -5 -6 -16 3 -21 -1
-23 -17 0 -11 -6 -22 -12 -24 -5 -2 -8 -8 -5 -12 3 -5 1 -11 -5 -15 -5 -3 -10
-1 -10 6 0 7 -3 9 -6 6 -4 -4 -1 -14 7 -24 9 -11 10 -14 2 -9 -8 4 -13 2 -13
-8 0 -8 -5 -18 -12 -22 -7 -5 -8 -3 -3 6 5 9 4 11 -4 6 -9 -6 -9 -11 0 -22 10
-12 10 -15 -2 -12 -8 2 -13 -3 -12 -9 2 -7 -5 -13 -15 -13 -9 0 -13 -4 -7 -8
6 -4 11 -13 13 -21 3 -12 1 -12 -14 0 -10 8 -15 9 -11 2 4 -6 1 -14 -5 -16
-10 -4 -10 -6 1 -6 9 -1 8 -6 -6 -18 -10 -10 -14 -16 -8 -13 6 3 3 -2 -6 -11
-16 -14 -16 -16 0 -27 14 -10 14 -11 -2 -6 -9 4 -17 1 -17 -5 0 -6 -6 -11 -14
-11 -10 0 -13 -8 -10 -26 4 -20 1 -25 -10 -21 -10 4 -13 1 -9 -8 3 -8 10 -12
16 -8 6 4 7 1 3 -6 -5 -7 -10 -10 -14 -7 -6 7 -32 -41 -32 -61 0 -9 -6 -13
-14 -10 -10 4 -13 1 -9 -9 3 -7 0 -14 -7 -14 -9 0 -9 -4 1 -17 10 -11 10 -14
1 -9 -8 5 -15 -2 -22 -21 -6 -15 -15 -36 -21 -47 -7 -13 -7 -16 0 -11 6 3 11
1 11 -4 0 -6 -4 -11 -10 -11 -5 0 -10 -7 -10 -16 0 -9 -5 -12 -13 -8 -8 5 -8
3 2 -9 11 -14 11 -18 -3 -23 -9 -3 -13 -10 -10 -15 3 -5 -1 -9 -8 -9 -9 0 -9
-3 2 -10 13 -8 12 -10 -2 -10 -11 0 -18 -8 -18 -21 0 -13 -4 -18 -12 -13 -7 4
-10 4 -6 -1 4 -4 3 -15 -4 -22 -9 -11 -9 -17 3 -24 10 -6 11 -9 1 -9 -8 0 -10
-5 -6 -12 6 -10 4 -10 -8 0 -13 11 -16 10 -14 -5 0 -10 6 -22 11 -26 6 -5 0
-7 -13 -4 -15 4 -20 1 -15 -6 12 -19 12 -36 1 -44 -7 -4 -8 -1 -3 7 5 9 4 11
-4 6 -9 -6 -9 -11 1 -24 8 -9 8 -13 2 -9 -7 4 -15 0 -18 -9 -4 -10 -2 -13 7
-8 6 4 1 -5 -13 -21 -14 -16 -19 -25 -11 -20 11 6 13 4 8 -9 -4 -10 -7 -20 -7
-22 0 -3 -6 -2 -12 2 -10 5 -10 4 -1 -6 10 -11 9 -16 -5 -27 -12 -10 -12 -12
-2 -8 9 4 8 1 -3 -8 -14 -11 -15 -16 -5 -20 11 -4 11 -6 0 -6 -7 -1 -10 -5 -7
-11 3 -5 0 -10 -7 -10 -9 0 -9 -3 2 -10 12 -8 12 -10 -5 -11 l-20 0 20 -9 c18
-8 18 -9 2 -9 -10 -1 -16 -5 -13 -9 2 -4 1 -14 -4 -22 -5 -9 -5 -19 1 -26 7
-9 3 -17 -13 -28 -12 -9 -17 -16 -10 -16 7 0 10 -5 7 -10 -4 -6 -12 -7 -18 -3
-7 4 -5 -2 3 -12 12 -15 12 -17 1 -10 -11 6 -13 4 -8 -9 6 -14 3 -17 -9 -12
-14 5 -15 4 -4 -9 10 -12 9 -16 -4 -21 -15 -6 -15 -8 1 -20 17 -13 17 -14 -1
-7 -13 4 -17 3 -12 -5 4 -7 3 -12 -3 -12 -7 0 -7 -8 -1 -25 7 -19 6 -23 -6
-18 -16 6 -16 -17 1 -29 6 -4 -1 -8 -15 -8 -14 0 -20 -4 -14 -8 6 -4 13 -15
17 -24 4 -12 2 -15 -9 -11 -11 4 -14 -1 -10 -21 3 -17 -1 -29 -12 -36 -12 -6
-13 -9 -3 -10 11 0 11 -3 1 -15 -9 -11 -9 -15 -1 -15 7 0 9 -5 6 -10 -4 -6
-10 -8 -15 -5 -4 3 -6 -5 -2 -17 4 -16 2 -19 -9 -13 -12 7 -12 6 0 -9 13 -15
13 -19 0 -27 -12 -7 -12 -9 1 -9 13 0 13 -1 0 -10 -13 -9 -13 -11 0 -20 13 -8
12 -10 -3 -10 -15 0 -16 -3 -6 -21 9 -17 8 -20 -2 -14 -9 6 -11 3 -6 -8 3 -9
1 -19 -5 -23 -7 -4 -6 -9 3 -15 12 -7 12 -9 0 -9 -10 0 -12 -11 -8 -42 2 -24
3 -37 0 -30 -3 6 -9 12 -14 12 -10 0 -8 -28 4 -47 5 -8 3 -13 -3 -13 -7 0 -9
-8 -5 -21 4 -12 3 -19 -2 -16 -5 3 -7 -10 -5 -29 4 -30 2 -33 -14 -28 -18 6
-18 6 0 -8 13 -11 16 -17 7 -22 -6 -4 -9 -12 -6 -17 4 -5 1 -9 -5 -9 -7 0 -8
-6 -2 -17 11 -19 -5 -66 -19 -57 -5 3 -9 3 -9 -1 0 -3 10 -10 23 -15 17 -7 18
-9 5 -9 -21 -1 -25 -40 -5 -60 10 -10 9 -12 -2 -9 -11 2 -15 -9 -16 -42 -3
-68 -4 -72 -17 -64 -7 4 -3 -3 9 -15 25 -24 32 -41 9 -22 -11 10 -14 9 -12 -1
1 -7 6 -19 10 -27 7 -10 6 -12 -4 -6 -10 6 -12 4 -7 -8 4 -10 1 -17 -6 -18 -7
0 -3 -4 8 -9 15 -6 16 -9 4 -9 -12 -1 -14 -9 -11 -32 3 -20 0 -34 -9 -40 -11
-7 -9 -9 6 -9 15 0 17 -3 7 -9 -15 -9 -15 -17 -1 -43 6 -10 5 -19 -1 -23 -5
-3 -7 -23 -5 -45 3 -27 0 -40 -8 -40 -8 0 -8 -3 -2 -8 13 -8 14 -61 2 -79 -4
-6 -3 -14 2 -18 6 -3 9 -25 7 -48 -1 -23 1 -48 7 -54 5 -8 6 -13 0 -13 -5 0
-9 -9 -9 -20 0 -11 5 -20 10 -20 5 0 1 -7 -10 -15 -16 -13 -16 -14 -1 -9 9 3
17 1 17 -5 0 -6 -6 -11 -12 -11 -8 0 -5 -7 6 -15 18 -14 15 -19 -9 -16 -5 1
-3 -4 5 -11 16 -14 24 -52 9 -42 -5 3 -9 0 -9 -5 0 -6 4 -11 9 -11 5 0 8 -27
7 -60 -2 -33 1 -60 5 -60 4 0 5 -9 2 -20 -3 -11 -1 -20 4 -20 5 0 10 -7 10
-15 0 -12 -3 -12 -15 -2 -13 10 -14 9 -4 -10 7 -12 9 -29 5 -39 -5 -14 -3 -16
13 -10 15 5 16 4 7 -5 -6 -6 -9 -18 -6 -25 3 -8 -1 -14 -8 -14 -10 -1 -9 -4 3
-10 10 -6 14 -18 11 -30 -3 -11 0 -26 6 -34 9 -11 9 -16 0 -21 -7 -5 -8 -10
-1 -14 6 -3 14 -19 18 -35 5 -23 4 -27 -7 -22 -8 4 -5 0 5 -8 15 -12 16 -16 5
-16 -12 0 -12 -2 1 -10 11 -7 11 -10 2 -10 -7 0 -10 -5 -7 -10 4 -6 10 -8 14
-6 4 3 7 -6 7 -20 0 -18 -4 -23 -16 -19 -13 5 -13 4 0 -7 9 -7 14 -21 12 -30
-2 -10 2 -18 10 -18 10 0 9 -3 -2 -10 -8 -5 -10 -10 -4 -10 6 0 11 -17 12 -37
1 -20 7 -40 13 -44 8 -5 7 -8 -2 -12 -12 -5 -12 -6 0 -6 11 -1 11 -4 0 -18
-12 -15 -12 -16 2 -11 13 5 16 2 11 -14 -3 -12 -1 -19 4 -15 5 3 9 -10 8 -29
-1 -19 2 -34 7 -34 6 0 5 -9 -1 -20 -7 -14 -7 -20 0 -20 5 0 10 5 10 12 0 6 3
8 6 5 4 -4 2 -13 -5 -20 -9 -11 -8 -17 3 -26 8 -7 12 -20 9 -28 -5 -13 -2 -15
12 -10 13 6 15 4 8 -5 -17 -24 -8 -80 18 -101 l24 -20 -25 7 c-21 6 -22 5 -7
-4 9 -6 14 -16 11 -22 -5 -8 -1 -9 11 -4 16 6 16 4 4 -11 -12 -15 -12 -16 5
-10 16 6 17 5 6 -8 -10 -12 -10 -15 1 -15 11 0 11 -2 -1 -10 -12 -8 -12 -10 5
-10 17 0 17 -2 5 -10 -13 -8 -12 -10 5 -10 14 0 16 -3 7 -12 -9 -9 -7 -14 5
-23 19 -14 28 -49 10 -38 -7 4 -6 0 1 -10 8 -9 11 -21 7 -27 -3 -5 1 -10 9
-10 9 0 16 -5 16 -11 0 -5 -4 -8 -9 -5 -5 4 -4 -7 2 -23 6 -17 15 -28 19 -25
4 3 8 1 8 -5 0 -5 -6 -12 -12 -14 -10 -4 -10 -6 0 -6 6 -1 12 -10 12 -20 0
-11 6 -21 12 -23 7 -3 11 -18 10 -36 -1 -19 2 -32 9 -32 8 0 8 -5 -1 -15 -11
-13 -10 -14 4 -9 12 5 15 2 10 -10 -3 -9 -1 -23 6 -31 7 -8 9 -15 5 -15 -4 0
-2 -7 5 -15 7 -8 10 -22 6 -30 -4 -11 -1 -15 11 -13 9 2 17 -5 18 -15 2 -9 -1
-15 -6 -11 -5 3 -6 10 -3 16 5 7 2 8 -6 3 -10 -6 -7 -14 13 -31 17 -15 22 -24
14 -27 -9 -4 -9 -6 1 -6 8 -1 10 -6 6 -13 -6 -10 -5 -10 7 -1 12 10 15 8 15
-7 0 -10 -4 -16 -9 -13 -5 3 -3 -4 4 -15 7 -12 18 -18 24 -14 5 3 4 -2 -4 -11
-12 -15 -11 -17 5 -17 17 0 17 -1 -2 -15 -18 -15 -18 -15 0 -8 13 4 17 3 12
-5 -4 -7 -2 -12 5 -12 6 0 9 -8 6 -20 -3 -14 0 -20 10 -20 10 0 14 -6 10 -20
-4 -14 0 -20 11 -20 12 0 13 -3 4 -12 -18 -18 -15 -28 9 -28 18 0 19 -3 9 -14
-9 -12 -8 -17 8 -27 11 -7 18 -19 15 -26 -3 -7 0 -13 7 -13 7 0 10 -7 6 -16
-3 -8 -2 -13 3 -10 5 3 14 -8 21 -24 7 -17 17 -30 22 -30 5 0 6 -4 3 -10 -3
-5 2 -10 11 -10 14 0 15 -3 6 -12 -7 -7 -12 -16 -12 -22 0 -5 3 -6 6 -3 13 12
43 -13 37 -30 -5 -12 -3 -14 8 -8 12 7 12 6 1 -7 -10 -13 -9 -18 5 -29 17 -13
17 -13 4 6 -14 19 -14 19 3 4 9 -9 18 -25 19 -37 1 -12 7 -22 14 -22 7 0 10
-6 7 -13 -2 -7 5 -23 16 -35 11 -12 17 -22 13 -22 -4 0 1 -7 11 -15 20 -15 20
-15 0 -16 -17 0 -17 -1 2 -9 12 -5 25 -14 30 -21 4 -8 3 -10 -4 -5 -8 5 -10 2
-6 -9 5 -12 9 -13 20 -4 17 14 18 -2 2 -20 -10 -11 -10 -13 -1 -7 7 4 13 2 13
-4 0 -6 5 -8 12 -4 6 4 8 3 4 -4 -3 -6 1 -18 10 -26 8 -9 12 -16 7 -16 -4 0 0
-5 9 -11 10 -5 18 -17 18 -24 0 -14 12 -20 33 -16 5 1 6 -3 2 -8 -3 -6 -13 -7
-22 -4 -15 6 -16 5 -3 -9 8 -9 18 -14 23 -11 4 2 7 -3 7 -11 0 -9 5 -16 11
-16 8 0 8 -4 0 -14 -10 -12 -8 -14 11 -9 18 4 20 3 8 -6 -13 -10 -13 -11 0
-12 8 -1 19 -1 24 0 5 1 3 -6 -5 -15 -9 -12 -9 -15 -2 -10 12 7 18 -5 14 -27
-1 -5 3 -6 9 -2 5 3 10 -1 10 -9 0 -9 5 -16 11 -16 5 0 7 -6 3 -12 -5 -8 0 -7
11 2 17 14 18 14 7 -7 -11 -19 -9 -21 11 -16 16 3 18 2 9 -5 -11 -7 -11 -10 3
-16 9 -3 14 -10 11 -15 -3 -4 4 -17 17 -27 22 -19 22 -19 4 2 -14 17 -14 21
-3 21 8 0 14 -3 13 -6 -3 -13 33 -68 65 -99 10 -9 18 -22 18 -30 0 -7 5 -10
10 -7 6 3 10 -1 10 -9 0 -9 5 -16 11 -16 5 0 7 -4 4 -10 -3 -5 -1 -10 6 -10
17 0 50 -41 42 -53 -4 -6 0 -8 10 -4 12 4 14 2 10 -10 -4 -11 -2 -14 5 -9 11
7 17 -13 13 -38 -1 -5 5 -3 14 4 9 7 15 9 14 4 -5 -27 1 -36 16 -24 9 8 15 9
15 2 0 -6 -5 -14 -10 -17 -16 -10 -1 -25 17 -18 12 5 15 2 10 -10 -3 -9 -1
-19 5 -23 7 -5 8 -2 3 7 -4 8 2 4 14 -9 12 -12 28 -19 34 -16 7 4 9 4 5 -1 -4
-4 -2 -15 4 -24 8 -10 3 -8 -12 4 l-25 20 20 -23 c11 -14 26 -21 37 -19 10 3
16 2 13 -3 -3 -4 2 -13 10 -20 8 -7 15 -19 15 -27 0 -8 4 -11 10 -8 6 3 10 -1
10 -10 0 -9 5 -13 10 -10 6 3 10 -1 10 -9 0 -8 9 -18 20 -21 11 -3 20 -13 20
-21 0 -16 11 -18 28 -4 9 7 9 7 2 -2 -13 -16 -13 -31 0 -23 6 3 10 -1 10 -10
0 -10 5 -13 12 -9 8 5 9 2 5 -10 -6 -14 -3 -15 13 -6 11 6 20 7 19 3 -1 -4 -1
-15 0 -23 1 -12 3 -13 10 -1 7 11 10 10 15 -5 3 -11 19 -25 36 -32 16 -8 30
-18 30 -23 0 -6 -5 -7 -12 -3 -7 4 -8 3 -4 -4 4 -6 13 -9 21 -5 8 3 15 0 15
-6 0 -6 10 -11 23 -12 12 0 16 -3 10 -6 -7 -2 -13 -12 -13 -21 0 -14 2 -14 9
-3 7 11 13 11 32 -3 13 -9 20 -16 16 -16 -4 0 1 -8 11 -18 9 -10 23 -16 31
-14 9 4 12 1 7 -6 -4 -7 -2 -12 4 -12 6 0 9 -4 6 -8 -2 -4 5 -14 17 -22 19
-11 21 -11 12 1 -5 8 -2 6 7 -4 10 -11 16 -23 13 -27 -3 -5 4 -6 15 -3 12 3
20 0 20 -6 0 -7 -5 -9 -12 -5 -9 5 -8 2 1 -9 11 -14 17 -15 30 -5 9 7 13 9 9
4 -9 -11 23 -46 35 -39 6 4 8 0 4 -9 -4 -12 0 -15 16 -11 18 4 20 3 7 -7 -13
-10 -11 -11 7 -7 15 3 20 1 16 -9 -3 -9 2 -14 17 -14 13 0 19 -4 14 -12 -5 -8
0 -9 15 -5 19 5 20 3 10 -9 -7 -8 -8 -14 -3 -13 20 3 35 -1 30 -10 -3 -5 2 -8
12 -7 9 0 16 -4 15 -11 -2 -7 4 -10 12 -6 9 3 24 -2 34 -11 10 -9 22 -13 26
-9 5 5 3 0 -4 -10 -12 -15 -12 -17 4 -11 14 6 16 4 10 -6 -6 -10 -4 -12 8 -7
10 3 17 2 17 -3 0 -6 7 -10 16 -10 8 0 12 -4 9 -10 -3 -5 3 -10 13 -10 11 0
23 -7 26 -16 4 -10 14 -14 26 -11 23 6 26 -3 8 -22 -11 -10 -8 -10 15 -2 26
10 33 5 28 -22 -1 -4 7 -3 18 2 21 12 32 5 24 -15 -4 -10 0 -12 11 -8 10 4 18
0 22 -10 6 -15 8 -15 20 1 11 13 13 14 9 2 -3 -8 4 -24 16 -35 13 -10 19 -14
16 -7 -4 6 -3 15 3 18 6 4 10 3 9 -2 -1 -4 -1 -15 0 -23 1 -13 2 -13 11 0 8
13 10 12 10 -3 0 -10 5 -15 10 -12 6 3 10 1 10 -4 0 -6 3 -10 8 -10 21 4 32
-2 26 -13 -5 -8 0 -7 11 2 11 9 16 10 11 2 -4 -7 -1 -12 9 -12 9 0 13 -5 9
-11 -4 -7 2 -7 17 1 13 7 21 9 17 5 -11 -12 15 -34 29 -24 7 7 14 6 19 -2 4
-8 3 -9 -4 -5 -23 14 -11 -9 13 -27 24 -17 24 -17 19 0 -3 11 3 6 16 -10 16
-20 26 -25 34 -18 9 8 19 5 34 -9 12 -11 28 -20 37 -20 8 0 15 -3 15 -8 0 -4
9 -13 21 -20 12 -8 18 -9 15 -4 -3 6 1 12 9 15 9 4 12 1 8 -9 -4 -10 2 -14 21
-14 18 0 30 -7 36 -22 7 -19 9 -19 9 -5 1 10 6 15 11 12 6 -4 7 -11 4 -17 -4
-6 -2 -8 3 -5 6 4 26 0 44 -8 19 -8 30 -14 24 -15 -22 -1 22 -20 48 -20 15 0
27 -4 27 -8 0 -5 12 -14 26 -20 14 -7 23 -8 20 -4 -3 5 1 9 9 9 8 0 12 -3 10
-7 -2 -3 6 -12 17 -19 18 -11 20 -11 15 3 -4 10 -1 13 9 9 7 -3 14 -9 14 -15
0 -5 4 -7 9 -3 5 3 16 -2 24 -10 17 -16 32 -21 23 -7 -3 5 1 9 9 9 8 0 12 -4
9 -9 -3 -4 2 -8 10 -8 9 0 16 -4 16 -10 0 -5 11 -10 25 -10 14 0 25 -6 25 -12
0 -9 4 -8 10 2 6 10 10 11 10 3 0 -7 9 -13 20 -13 11 0 20 -5 20 -12 0 -9 3
-9 12 0 10 10 15 7 26 -10 10 -18 12 -19 7 -4 -6 20 -6 20 16 0 12 -10 19 -14
16 -7 -8 13 18 12 30 -2 4 -4 3 -5 -3 -2 -6 3 -11 0 -11 -8 0 -10 5 -11 19 -4
12 7 18 6 18 -1 0 -6 4 -9 9 -6 4 3 17 -1 27 -8 15 -11 22 -12 33 -3 12 10 13
9 6 -2 -6 -11 -3 -13 13 -9 12 4 25 2 28 -3 3 -5 10 -6 16 -3 7 5 8 2 3 -6 -6
-10 -1 -12 19 -8 16 3 33 0 42 -9 10 -11 14 -11 14 -2 0 7 6 5 13 -6 11 -14
16 -15 22 -5 6 10 9 9 16 -1 7 -11 9 -10 9 4 0 15 2 15 20 -3 12 -12 25 -18
31 -14 15 9 69 12 63 3 -2 -4 3 -9 10 -12 8 -3 17 -1 20 6 2 7 5 1 6 -13 1
-14 4 -19 7 -12 2 6 9 12 14 12 6 0 8 -4 5 -8 -3 -5 1 -9 9 -9 8 0 12 4 9 8
-2 4 0 10 6 14 5 3 10 0 10 -8 0 -20 25 -28 39 -14 8 8 11 7 11 -3 0 -7 3 -10
7 -7 3 4 12 2 20 -5 11 -9 12 -7 6 8 -5 15 -4 17 8 8 8 -6 22 -10 31 -9 11 2
15 -2 11 -13 -3 -13 -1 -13 11 2 14 17 16 18 16 3 0 -9 5 -17 11 -17 5 0 8 4
5 8 -3 5 1 9 9 9 8 0 12 -4 9 -9 -8 -13 10 -10 25 5 11 9 13 9 7 0 -4 -8 -1
-13 8 -13 8 0 17 6 19 13 3 7 6 5 6 -5 1 -10 6 -18 12 -18 5 0 7 6 3 13 -5 8
-2 7 9 -2 21 -17 63 -21 96 -9 19 7 22 6 17 -7 -4 -11 -2 -14 6 -9 11 7 32 8
69 5 5 -1 7 -7 4 -13 -4 -7 -1 -6 7 3 14 17 42 14 32 -3 -4 -5 5 -3 19 7 19
12 27 13 33 4 4 -7 3 -9 -4 -5 -6 3 -13 3 -16 -2 -2 -4 6 -8 19 -8 13 0 21 4
19 8 -3 4 0 8 5 8 6 0 11 -4 11 -9 0 -13 24 -8 46 9 17 14 18 13 6 -2 -12 -15
-8 -16 38 -14 27 1 50 -2 50 -6 0 -4 5 -8 11 -8 6 0 7 6 2 13 -4 6 6 4 21 -7
16 -10 25 -13 22 -7 -10 15 17 14 33 -1 9 -9 12 -9 7 -1 -3 6 0 13 6 16 20 6
39 -4 31 -17 -3 -6 -1 -6 8 2 16 14 33 16 24 2 -3 -6 1 -7 9 -4 9 3 14 10 11
14 -3 5 4 6 16 3 16 -4 17 -8 7 -14 -9 -6 -9 -9 -1 -9 6 0 15 5 18 10 3 6 11
10 16 10 6 0 7 -6 3 -12 -6 -10 -4 -10 8 0 11 9 18 10 23 2 8 -13 25 -13 25 1
0 5 -5 7 -12 3 -6 -4 -8 -3 -5 4 4 5 16 8 27 5 11 -3 18 -9 15 -12 -2 -4 2 -8
10 -8 8 0 12 4 9 9 -8 13 20 9 35 -4 9 -8 11 -8 8 -2 -4 7 0 14 8 17 9 4 12 1
9 -8 -5 -11 0 -12 24 -6 20 6 34 5 42 -2 10 -9 12 -8 7 5 -5 14 -2 16 16 9 13
-5 29 -4 40 3 14 9 20 8 27 -4 8 -12 10 -12 11 5 0 11 3 14 6 8 2 -7 9 -13 14
-13 6 0 8 4 5 8 -6 10 35 9 51 -1 6 -4 14 -3 18 3 3 5 16 10 28 9 68 -1 133 6
139 16 5 6 8 6 8 -2 0 -7 7 -10 15 -7 8 4 12 11 9 18 -3 6 1 3 9 -7 8 -10 17
-13 18 -8 2 6 19 13 37 15 26 3 30 1 21 -10 -8 -9 -8 -14 -1 -14 6 0 14 9 17
20 4 11 11 18 16 14 5 -3 6 -11 2 -17 -4 -7 0 -7 10 1 9 8 22 10 28 6 8 -4 9
-3 5 4 -10 16 7 15 23 -1 11 -10 12 -9 6 2 -6 11 -4 13 8 8 12 -4 17 -1 17 11
1 15 2 15 15 -2 12 -16 15 -17 15 -4 0 13 12 15 65 14 37 -2 68 1 71 6 3 4 -1
5 -9 2 -8 -3 -17 -1 -21 4 -6 10 24 9 41 -1 6 -4 15 -3 18 3 5 8 11 7 21 -1
11 -9 15 -8 20 4 3 9 12 13 21 10 10 -4 14 -2 10 4 -3 5 0 10 8 10 8 0 12 -5
8 -10 -3 -5 3 -4 14 1 10 6 31 9 45 8 19 -2 25 1 21 10 -3 8 0 14 6 14 6 0 11
-5 11 -11 0 -6 8 -3 18 8 9 10 14 14 10 8 -4 -6 3 -10 17 -10 13 0 21 3 18 8
-2 4 1 7 7 7 6 0 8 6 4 13 -4 6 3 3 15 -7 17 -16 20 -16 16 -4 -4 9 -1 19 6
24 8 4 10 3 5 -4 -4 -7 -1 -12 8 -12 9 0 16 5 16 10 0 6 5 10 11 10 5 0 7 -4
4 -10 -4 -6 1 -7 12 -3 10 4 22 13 26 20 7 12 11 12 25 1 14 -11 15 -10 9 7
-7 20 -7 20 8 1 13 -18 19 -15 16 6 0 4 7 4 16 1 12 -5 14 -3 8 8 -7 11 -5 11
10 -1 17 -13 18 -13 13 0 -5 12 1 16 23 14 16 -1 29 3 29 9 0 7 5 5 10 -3 9
-13 10 -13 11 0 1 8 1 19 0 23 -1 5 3 6 9 2 6 -3 8 -10 6 -14 -3 -4 1 -8 9 -8
8 0 13 5 12 11 -1 6 8 12 21 14 12 2 22 9 22 15 0 8 3 8 8 -1 11 -17 40 -5 47
19 6 17 8 17 21 4 19 -19 25 -19 18 0 -4 11 -2 13 9 9 8 -3 29 2 46 11 18 9
37 13 43 9 7 -4 8 -3 4 4 -4 6 4 16 16 23 21 11 22 11 10 -4 -12 -14 -11 -15
12 -4 14 7 26 19 26 27 0 13 1 13 10 0 7 -11 10 -11 10 -2 0 7 5 10 10 7 6 -3
10 -2 10 4 0 6 6 8 14 5 8 -3 17 0 22 7 5 8 3 10 -6 4 -9 -6 -11 -4 -5 4 5 9
10 10 18 2 7 -7 15 -5 24 7 8 9 12 11 8 5 -3 -7 -1 -13 4 -13 6 0 11 5 11 12
0 6 3 8 7 5 3 -4 12 1 20 11 10 11 12 12 8 2 -4 -10 -2 -9 8 3 16 20 32 23 21
5 -5 -9 -3 -9 9 1 9 7 14 18 10 24 -3 6 -1 7 6 3 6 -4 19 -2 28 6 12 9 15 9 9
1 -4 -7 -3 -13 2 -13 6 0 13 7 16 16 3 8 10 12 16 9 5 -3 10 0 10 7 0 10 2 10
8 0 7 -9 15 -7 35 12 14 13 29 21 32 17 4 -3 12 1 18 9 7 8 19 15 27 15 8 0
14 5 13 11 -1 8 6 10 19 6 17 -4 20 -2 15 12 -4 11 -3 15 4 11 17 -11 59 4 59
21 0 10 6 14 15 10 9 -3 15 0 15 10 0 12 7 15 25 12 20 -4 23 -3 14 8 -8 10
-6 12 10 9 13 -2 21 1 21 10 0 8 7 11 20 8 14 -4 20 0 20 11 0 9 5 16 11 16 6
0 8 -8 5 -17 -6 -17 -5 -17 8 0 7 9 18 17 23 17 5 0 18 9 28 20 10 11 21 17
25 15 4 -3 14 3 21 13 13 16 13 16 -6 2 -19 -14 -19 -14 -6 3 10 12 17 14 26
7 9 -8 19 -3 37 18 13 16 30 26 37 24 8 -3 11 0 7 7 -7 10 6 16 27 12 5 -1 5
4 1 10 -5 9 -2 10 9 6 16 -6 44 27 39 46 -1 5 2 6 8 2 6 -3 8 -12 4 -18 -3 -7
2 -3 11 8 9 11 21 19 27 17 7 -2 6 3 -2 13 -11 13 -10 15 4 9 11 -4 16 -1 16
10 0 9 5 16 11 16 5 0 8 -4 4 -9 -3 -5 0 -13 6 -17 8 -4 9 -3 5 5 -4 6 0 14 8
17 9 3 13 11 9 17 -4 7 0 8 11 4 14 -6 17 -3 12 10 -4 10 -4 14 0 11 3 -4 14
1 23 10 9 10 12 13 8 6 -5 -7 -3 -15 4 -20 8 -4 9 -3 5 4 -4 6 2 17 14 24 11
7 20 18 20 25 0 7 5 13 11 13 5 0 7 -5 3 -12 -4 -7 -3 -8 4 -4 7 4 12 15 13
24 0 10 3 12 6 5 3 -10 7 -10 18 0 7 7 10 17 7 22 -3 6 2 4 11 -4 15 -12 17
-12 12 2 -4 8 -1 18 6 23 8 5 10 3 5 -7 -4 -8 1 -4 12 8 15 17 22 19 31 10 9
-9 11 -8 6 5 -4 11 1 20 15 28 11 6 18 15 15 20 -3 5 0 12 6 16 7 4 9 3 6 -3
-4 -6 0 -13 8 -16 9 -4 12 -1 8 9 -3 8 1 14 11 14 9 0 15 6 14 13 -2 6 3 11
11 9 8 -2 11 3 8 12 -5 13 21 27 58 30 6 1 9 10 7 20 -2 10 1 15 6 12 6 -3 13
1 16 10 3 8 11 12 17 8 8 -4 9 -3 5 4 -4 7 -2 12 4 12 6 0 9 4 5 9 -3 5 -1 12
4 15 5 4 13 1 17 -5 5 -8 3 -9 -6 -4 -9 6 -11 4 -5 -4 9 -16 26 -1 28 27 0 11
5 18 9 16 5 -3 6 -11 2 -17 -3 -7 1 -4 9 5 8 10 17 15 21 11 4 -4 4 0 1 10 -5
12 0 19 20 27 16 6 23 14 19 22 -5 8 -2 9 10 5 9 -4 15 -3 11 2 -3 5 6 18 20
29 13 11 21 23 17 27 -4 5 -2 5 5 1 13 -7 53 22 53 40 0 6 12 17 26 24 17 10
24 20 20 33 -3 13 -1 15 7 9 13 -11 41 11 30 22 -4 3 0 6 8 6 17 0 60 50 53
61 -3 5 3 6 12 2 13 -5 16 -3 11 9 -6 16 17 33 32 24 4 -3 6 9 5 25 -2 24 1
28 11 19 10 -9 16 -6 25 9 9 17 8 20 -7 14 -14 -5 -13 -3 3 13 12 13 22 16 26
10 5 -7 8 -4 8 7 0 9 4 17 10 17 5 0 6 8 3 18 -6 15 -5 15 10 3 15 -12 17 -12
11 4 -5 12 -4 16 3 12 6 -4 14 0 17 9 4 10 2 13 -6 8 -7 -4 -8 -3 -4 4 4 7 14
12 23 12 13 0 14 2 2 17 -8 9 -9 14 -2 10 6 -4 19 -4 28 -1 13 5 14 8 3 15
-10 7 -9 9 5 9 10 0 15 4 12 10 -3 5 5 15 19 21 14 7 23 16 19 22 -3 5 1 13 8
18 8 4 14 14 14 21 1 7 6 12 13 10 12 -2 16 10 13 35 -1 6 4 15 10 19 8 5 9 3
4 -6 -5 -9 -4 -11 3 -6 7 4 12 12 12 18 0 6 8 17 18 24 16 13 16 14 -3 8 -18
-5 -18 -4 -2 6 9 6 23 8 30 4 6 -4 9 -4 5 0 -4 5 2 24 13 43 11 19 17 39 13
45 -4 6 1 6 14 -1 18 -10 20 -9 17 11 -5 23 12 51 25 43 5 -3 12 0 16 6 4 8 3
9 -4 5 -7 -4 -12 -2 -12 3 0 6 7 11 17 11 9 0 13 3 10 7 -4 3 1 12 11 20 10 9
11 11 2 7 -12 -7 -13 -5 -3 8 7 8 9 18 5 22 -4 4 -2 7 3 6 21 -5 33 1 39 16 6
15 4 15 -11 3 -16 -12 -17 -12 -6 2 7 9 10 19 6 23 -4 4 0 4 10 0 12 -4 17 -1
17 11 0 9 4 13 10 10 6 -4 7 1 3 11 -4 11 -3 15 4 11 7 -5 9 0 6 13 -3 12 0
20 6 20 7 0 9 -5 5 -12 -4 -6 -3 -8 4 -5 5 4 9 18 8 31 -2 19 1 23 13 19 9 -4
13 -3 9 2 -4 4 -2 15 5 23 10 13 9 15 -3 8 -8 -4 -6 1 6 11 11 10 20 26 18 35
-1 10 3 15 12 11 9 -3 12 2 9 16 -2 12 0 21 5 21 5 0 12 9 15 20 4 11 10 18
15 15 4 -3 6 5 2 17 -3 14 -2 19 6 14 11 -6 17 13 13 37 -1 5 3 6 9 2 5 -3 10
-1 10 5 0 6 4 9 9 5 6 -3 8 4 6 16 -3 13 0 19 8 16 8 -3 13 5 14 22 1 37 6 54
19 66 5 5 16 23 22 38 10 23 10 27 0 21 -7 -4 -5 2 5 13 9 11 17 25 17 32 0 7
5 9 12 5 8 -5 9 -2 5 9 -3 10 -2 17 4 17 6 0 7 4 4 10 -3 5 -1 10 5 10 7 0 9
7 6 16 -3 8 -2 13 3 10 5 -3 12 1 15 10 4 10 2 13 -7 9 -6 -4 -5 -1 4 7 9 7
15 21 13 31 -1 11 0 16 3 13 9 -9 35 33 28 44 -3 6 -2 10 2 10 5 0 10 12 11
26 1 15 10 33 20 41 9 8 12 12 7 9 -6 -2 -11 4 -11 14 0 15 3 17 15 7 12 -10
13 -9 7 1 -4 7 -2 19 4 27 7 8 10 21 7 29 -3 8 1 20 9 27 8 7 13 18 10 25 -3
8 3 18 14 24 11 6 17 16 14 25 -4 9 -1 21 5 29 6 7 8 22 4 31 -4 13 -3 16 6
11 8 -5 12 -3 10 5 -3 25 1 37 17 53 9 9 11 16 4 16 -6 0 -8 5 -5 10 4 6 9 8
13 6 4 -2 8 18 9 45 1 29 8 55 17 65 19 19 21 28 4 18 -7 -4 -4 3 7 16 11 13
14 20 8 16 -7 -4 -13 -2 -13 3 0 6 5 11 11 11 5 0 8 4 4 9 -3 5 -2 12 3 15 4
2 9 19 10 37 2 18 8 36 14 40 6 4 8 16 5 28 -3 12 -2 21 3 21 4 0 6 12 4 26
-1 14 3 27 10 30 7 3 13 11 13 19 0 12 -3 12 -16 3 -9 -7 -6 -1 6 13 16 18 20
28 12 36 -8 8 -7 13 2 18 8 6 10 4 4 -5 -5 -9 -4 -11 3 -6 8 5 9 13 2 25 -5
10 -6 22 -2 26 4 3 8 22 8 41 2 44 23 95 38 88 6 -3 3 1 -7 9 -14 11 -15 16
-5 20 10 4 10 6 -1 6 -11 1 -10 5 5 17 10 8 14 13 7 10 -6 -4 -14 -2 -18 4 -3
5 1 10 10 10 13 0 14 4 4 21 -9 17 -8 20 2 14 8 -6 11 -4 7 6 -3 8 0 23 8 34
9 12 10 22 4 31 -7 8 -6 13 3 17 9 3 13 22 12 57 -1 28 3 53 7 56 5 3 3 13 -4
22 -10 12 -10 16 0 19 6 3 12 9 12 14 0 6 -5 7 -11 3 -8 -5 -8 -1 0 13 7 14 7
24 -2 33 -9 10 -9 11 1 5 16 -8 13 26 -3 37 -6 5 -5 8 3 8 6 0 12 5 12 11 0 5
-6 7 -12 3 -10 -6 -10 -5 -1 7 6 8 13 28 15 44 2 17 10 36 18 43 13 10 12 11
-5 5 -19 -7 -19 -6 -3 19 13 19 15 29 6 34 -7 5 -8 3 -3 -6 6 -9 4 -11 -4 -6
-9 6 -8 13 6 29 10 11 12 17 6 13 -7 -4 -13 -2 -13 3 0 6 4 11 8 11 5 0 9 7 9
15 0 8 -4 15 -9 15 -5 0 -6 5 -3 10 4 6 12 8 18 4 7 -3 4 1 -6 9 -14 11 -15
16 -5 20 10 4 10 6 -1 6 -11 1 -10 5 5 16 12 9 13 13 4 10 -11 -4 -16 1 -17
15 -1 11 3 20 8 20 6 0 7 -5 3 -12 -4 -7 -3 -8 4 -4 13 8 5 36 -10 36 -5 0 -6
5 -3 10 4 6 12 7 18 3 7 -4 4 6 -7 21 -10 16 -13 25 -7 22 15 -10 14 37 -1 53
-8 8 -8 11 -2 8 7 -4 12 3 12 18 0 14 -4 22 -9 19 -5 -3 -6 2 -3 10 3 9 10 14
14 11 5 -3 6 4 3 15 -3 11 -9 18 -12 15 -4 -2 -8 2 -8 9 0 8 5 12 12 10 6 -3
11 4 11 15 0 12 -5 17 -15 13 -9 -3 -12 -1 -8 6 12 18 15 72 5 72 -5 0 -6 5
-3 10 4 6 12 8 18 4 7 -3 4 1 -6 9 -12 10 -14 17 -8 22 6 3 11 11 11 16 0 6
-5 7 -12 3 -7 -5 -8 -3 -3 7 5 7 10 25 11 38 2 19 1 22 -6 11 -6 -10 -9 -6 -8
16 1 17 -3 37 -7 44 -6 10 -4 12 10 6 15 -5 16 -4 5 9 -7 8 -10 28 -8 44 3 18
0 28 -6 24 -5 -4 -7 1 -3 10 3 10 2 17 -3 17 -5 0 -6 7 -3 17 5 12 3 14 -7 8
-9 -6 -11 -4 -5 6 12 18 7 69 -8 88 -8 10 -8 12 -1 8 15 -9 12 70 -4 99 -6 12
-8 24 -5 28 3 3 0 6 -8 6 -11 0 -11 2 1 10 8 5 10 10 4 10 -7 0 -15 7 -18 16
-3 8 -2 12 4 9 6 -3 10 -1 10 4 0 6 -5 11 -10 11 -7 0 -7 6 0 20 9 17 8 19 -7
13 -15 -6 -16 -4 -5 9 10 13 10 17 -4 22 -15 6 -15 8 2 28 11 12 13 18 7 14
-8 -4 -13 -1 -13 9 0 9 -3 14 -7 12 -5 -3 -9 20 -9 51 -2 80 -7 112 -17 112
-5 0 -5 6 1 13 7 8 7 18 2 27 -5 8 -6 18 -4 22 3 5 -1 11 -10 14 -9 3 -12 12
-9 21 4 11 2 14 -5 9 -8 -5 -9 -1 -3 16 6 16 3 30 -8 47 -8 13 -14 38 -12 54
2 22 -1 27 -11 22 -7 -5 -10 -4 -5 0 4 5 0 17 -9 26 -16 17 -16 19 0 25 15 6
15 7 0 19 -13 9 -14 14 -5 20 9 5 7 11 -7 21 -12 8 -18 23 -17 41 1 15 -4 39
-13 52 -13 22 -13 23 1 18 11 -4 14 -2 10 9 -3 7 -9 14 -13 14 -7 0 -11 12
-25 63 -2 4 -3 14 -4 23 0 8 -5 13 -9 10 -12 -7 -10 38 2 47 6 4 0 6 -14 3
-20 -3 -26 0 -26 14 0 15 4 17 16 8 8 -6 2 2 -15 18 -17 16 -22 25 -12 21 9
-3 17 -2 17 3 0 6 -5 10 -12 10 -6 0 -8 3 -5 7 4 3 -1 12 -12 19 -11 8 -17 23
-16 39 2 14 -1 25 -6 25 -5 0 -8 6 -6 13 1 6 -3 11 -9 10 -6 -1 -10 13 -9 31
0 24 -3 32 -12 29 -9 -3 -11 0 -8 10 4 8 -1 17 -9 20 -9 4 -13 13 -10 22 3 8
2 15 -4 15 -6 0 -8 9 -5 20 3 11 0 20 -6 20 -6 0 -11 7 -11 16 0 9 5 12 12 8
7 -4 8 -3 4 4 -4 6 -14 8 -24 5 -9 -3 -14 -3 -10 2 4 4 3 14 -4 22 -9 11 -7
12 8 7 18 -5 18 -5 1 6 -9 6 -15 15 -12 21 4 5 1 9 -5 9 -6 0 -9 4 -6 9 4 5 0
11 -6 13 -7 3 -14 14 -14 26 -3 48 -4 53 -13 48 -5 -3 -12 1 -15 10 -4 10 -2
13 7 9 6 -4 5 -1 -4 7 -9 7 -22 30 -28 51 -7 21 -15 36 -19 33 -3 -3 -11 2
-18 12 -9 13 -10 20 -1 31 10 12 9 13 -2 6 -11 -6 -13 -4 -8 8 3 9 1 19 -5 23
-7 5 -8 2 -3 -6 6 -9 4 -11 -4 -6 -7 5 -10 14 -7 22 3 8 2 13 -2 13 -19 -3
-23 2 -12 16 10 12 8 14 -9 10 -11 -2 -20 -1 -20 3 4 25 -4 40 -23 45 -19 5
-20 8 -7 23 12 16 12 17 -3 11 -12 -4 -15 -2 -11 9 3 7 0 14 -6 14 -6 0 -11 9
-11 20 0 12 -7 20 -16 20 -13 0 -14 3 -4 15 10 12 9 16 -4 21 -9 3 -13 11 -9
18 4 6 -1 5 -10 -2 -15 -12 -16 -11 -12 18 3 28 2 30 -12 18 -14 -11 -16 -10
-11 15 5 24 3 26 -10 15 -9 -7 -13 -8 -10 -3 10 16 -22 74 -43 80 -11 4 -17
11 -14 16 4 5 -1 9 -9 9 -8 0 -18 5 -22 12 -4 7 -3 8 4 4 18 -11 5 36 -15 53
-16 15 -16 15 -2 -4 13 -18 13 -19 -3 -6 -10 7 -18 21 -18 30 0 14 -2 14 -10
1 -12 -19 -13 -4 -1 19 8 14 6 17 -12 17 -16 -1 -22 5 -22 21 0 12 -6 28 -14
35 -12 11 -13 11 -6 -1 5 -9 4 -12 -3 -7 -7 4 -12 16 -12 26 0 10 -4 22 -10
25 -6 4 -7 -1 -3 -12 6 -15 5 -16 -9 -3 -9 8 -14 17 -13 20 6 11 -27 70 -36
64 -5 -3 -9 3 -9 13 -1 26 -24 53 -46 53 -16 0 -17 2 -4 10 13 9 13 10 0 11
-8 1 -19 1 -23 0 -5 -1 -6 3 -3 8 4 5 0 16 -8 24 -8 8 -12 18 -8 23 4 5 -1 2
-10 -5 -15 -11 -17 -10 -13 8 2 14 -1 21 -11 21 -8 0 -14 5 -14 11 0 5 -6 7
-12 3 -7 -4 -10 -4 -6 1 4 4 2 15 -5 23 -10 13 -9 14 2 7 10 -5 12 -4 7 4 -4
6 -15 10 -23 9 -9 -2 -18 4 -20 12 -4 13 -3 13 7 0 10 -13 11 -13 7 0 -2 8
-11 14 -20 14 -10 -1 -14 5 -12 18 3 15 0 18 -13 13 -9 -3 -13 -3 -9 1 9 9
-13 35 -24 28 -5 -3 -6 3 -2 12 5 14 3 16 -11 11 -10 -4 -15 -3 -11 3 3 6 1
10 -4 10 -6 0 -11 7 -11 16 0 10 -5 14 -16 10 -8 -3 -13 -2 -11 2 6 10 -40 52
-49 44 -4 -4 -4 1 -1 11 7 19 -9 24 -16 5 -5 -12 -11 17 -8 35 1 5 -3 6 -9 2
-9 -5 -14 7 -11 27 0 4 -7 4 -16 1 -10 -4 -14 -2 -9 5 3 6 1 14 -5 18 -8 4 -9
3 -5 -4 4 -7 2 -12 -3 -12 -6 0 -11 6 -11 14 0 8 -5 18 -12 22 -7 5 -8 3 -3
-6 5 -9 4 -11 -3 -6 -7 4 -12 16 -12 26 0 14 -5 18 -16 13 -11 -4 -15 -1 -12
13 2 13 -2 18 -14 16 -11 -2 -18 3 -18 14 0 14 -3 14 -16 4 -8 -8 -14 -9 -13
-4 4 23 -3 35 -36 57 -19 13 -32 27 -27 32 4 4 -5 6 -20 3 -24 -4 -26 -3 -18
13 9 15 7 17 -11 14 -17 -3 -19 -2 -9 10 10 12 8 13 -8 10 -16 -3 -20 1 -17
17 4 16 2 18 -10 8 -11 -10 -15 -10 -15 -1 0 7 -4 9 -10 6 -6 -4 -7 1 -3 11 4
12 3 15 -5 10 -7 -4 -15 -1 -18 8 -3 9 -14 16 -24 16 -11 0 -22 4 -25 10 -4 6
1 7 12 4 10 -3 3 3 -15 15 -18 12 -38 18 -44 15 -7 -4 -8 -2 -4 5 4 6 0 14 -8
17 -9 3 -16 14 -16 23 0 14 -2 14 -10 1 -8 -13 -10 -13 -10 2 0 9 -5 20 -12
24 -7 4 -8 3 -4 -4 4 -7 2 -12 -3 -12 -6 0 -11 4 -11 10 0 16 -43 50 -62 50
-11 0 -16 5 -13 10 6 9 -8 14 -27 11 -5 0 -8 4 -8 10 0 5 -4 7 -10 4 -5 -3
-10 -1 -10 5 0 6 -5 8 -12 4 -9 -6 -9 -3 0 9 12 14 11 16 -7 12 -12 -2 -21 1
-21 6 0 6 -4 7 -10 4 -5 -3 -10 1 -10 11 0 11 -6 15 -20 11 -10 -3 -18 -2 -17
2 4 13 -47 61 -65 61 -10 0 -18 6 -18 14 0 9 -9 13 -25 11 -14 -1 -28 2 -32 8
-3 6 -1 7 5 3 7 -4 12 -3 12 3 0 5 -9 13 -20 16 -11 3 -20 11 -20 17 0 6 -7 5
-17 -3 -11 -10 -14 -10 -9 -1 4 7 2 12 -4 12 -6 0 -8 5 -4 13 5 7 0 6 -11 -3
-17 -13 -18 -13 -13 1 5 12 0 15 -23 14 -25 -2 -27 0 -16 14 8 9 8 12 1 8 -7
-4 -14 -1 -17 7 -4 9 -16 13 -32 12 -19 -3 -25 0 -21 11 3 8 2 12 -3 8 -5 -3
-12 1 -14 7 -4 10 -6 10 -6 0 -1 -10 -4 -10 -15 0 -8 7 -12 17 -9 21 3 5 -5 4
-17 -3 -20 -11 -22 -10 -17 3 7 19 -17 29 -32 14 -10 -9 -12 -9 -9 3 2 8 -3
14 -9 12 -7 -1 -13 2 -13 8 0 5 -7 7 -15 4 -12 -5 -14 -2 -8 12 6 17 5 18 -12
4 -11 -9 -16 -10 -11 -2 4 7 1 12 -8 12 -9 0 -16 5 -16 11 0 6 -7 8 -15 5 -9
-3 -18 1 -21 9 -4 8 -13 15 -21 15 -8 0 -11 -5 -7 -12 4 -8 3 -10 -2 -5 -5 5
-9 14 -9 20 0 7 -6 12 -13 12 -7 0 -17 7 -22 15 -9 13 -10 13 -10 0 0 -13 -1
-13 -10 0 -7 11 -10 11 -10 2 0 -7 -12 0 -26 15 -15 15 -20 19 -13 9 13 -18
13 -18 -9 -7 -12 7 -20 16 -18 20 5 7 -1 9 -43 13 -11 1 -17 6 -15 10 5 7 -28
13 -50 9 -5 -1 -6 4 -3 12 4 10 -1 13 -19 9 -18 -3 -24 0 -24 14 0 17 -1 17
-16 -2 -8 -10 -13 -14 -10 -8 3 7 -2 18 -11 25 -12 10 -14 10 -9 2 4 -7 2 -13
-3 -13 -6 0 -11 7 -11 15 0 8 -4 15 -10 15 -5 0 -8 -6 -6 -12 1 -7 1 -10 -1
-5 -3 4 -9 5 -14 2 -5 -4 -6 2 -2 11 4 12 3 15 -5 10 -6 -4 -23 0 -36 9 -14 9
-29 14 -35 11 -5 -4 -17 1 -25 10 -9 9 -24 13 -32 10 -11 -4 -15 -2 -11 7 6
15 -20 16 -42 2 -8 -4 -12 -4 -9 1 7 10 -11 27 -32 32 -11 3 -11 0 0 -13 11
-13 10 -15 -4 -9 -9 3 -16 10 -16 14 0 4 -7 11 -16 14 -9 4 -13 2 -8 -5 4 -8
0 -8 -14 0 -12 6 -23 15 -26 20 -3 5 -19 7 -36 5 -20 -2 -33 1 -36 10 -3 8
-14 12 -25 9 -11 -3 -19 0 -19 7 0 10 -3 10 -15 0 -12 -10 -15 -10 -15 0 0 7
-8 10 -20 7 -10 -3 -18 -2 -17 2 1 3 -2 6 -8 6 -5 0 -9 -4 -7 -10 2 -5 -7 1
-20 15 -13 14 -19 20 -15 14 6 -9 2 -11 -12 -7 -12 3 -18 10 -14 16 3 5 1 7
-4 4 -6 -4 -21 2 -34 12 -17 14 -30 16 -51 10 -22 -6 -28 -4 -28 8 0 13 -2 14
-17 2 -11 -10 -14 -10 -9 -1 7 12 -3 16 -35 13 -9 -1 -19 5 -22 13 -5 12 -12
14 -32 6 -21 -8 -25 -7 -25 8 0 15 -2 15 -10 2 -9 -13 -10 -13 -10 0 0 13 -1
13 -10 0 -5 -8 -10 -10 -10 -4 0 7 -7 15 -16 18 -8 3 -13 2 -10 -2 2 -4 -8 -8
-24 -7 -19 0 -25 4 -20 10 6 7 2 11 -11 12 -11 1 -17 -2 -15 -6 3 -4 -1 -8 -9
-8 -8 0 -12 4 -10 8 3 4 -2 10 -11 13 -12 5 -15 2 -10 -10 5 -14 4 -15 -8 -5
-8 6 -18 11 -22 10 -22 -4 -35 2 -29 14 4 6 -1 3 -9 -7 -15 -19 -16 -19 -16
-2 0 16 -2 17 -17 5 -9 -8 -14 -9 -10 -3 6 10 -20 15 -75 15 -10 0 -20 5 -24
10 -4 6 -11 6 -20 -2 -11 -9 -14 -9 -14 0 0 7 -8 11 -17 9 -10 -1 -24 2 -32 6
-11 7 -13 5 -8 -10 7 -18 7 -18 -8 0 -8 11 -15 16 -15 10 0 -5 -11 -9 -24 -9
-17 0 -22 3 -15 12 7 8 5 10 -10 6 -12 -3 -19 -9 -16 -13 3 -5 -4 -6 -15 -3
-11 3 -18 8 -16 12 3 4 -4 7 -14 7 -14 0 -16 -3 -8 -13 8 -10 7 -12 -6 -7 -9
3 -16 11 -16 16 0 7 -4 7 -12 1 -16 -12 -49 -13 -42 -1 8 13 -10 10 -25 -4
-11 -10 -13 -10 -7 0 9 15 -20 17 -29 2 -4 -7 -13 -5 -25 3 -13 9 -35 12 -69
7 -27 -3 -58 -3 -70 2 -16 6 -21 3 -21 -10 0 -11 -3 -13 -8 -6 -11 17 -57 30
-47 14 6 -9 4 -11 -6 -5 -7 5 -25 9 -39 10 -14 1 -32 5 -39 10 -9 5 -19 2 -28
-10 -11 -16 -13 -16 -13 -3 0 11 -8 15 -24 14 -20 -1 -22 -4 -13 -15 10 -12 9
-12 -10 -2 -14 7 -20 17 -17 26 4 8 4 15 1 15 -3 0 -8 -7 -11 -16z m1398 -172
c3 -5 -1 -9 -9 -9 -8 0 -12 4 -9 9 3 4 7 8 9 8 2 0 6 -4 9 -8z m1333 -554 c-3
-8 -6 -5 -6 6 -1 11 2 17 5 13 3 -3 4 -12 1 -19z m-6314 -843 c-3 -9 -8 -14
-10 -11 -3 3 -2 9 2 15 9 16 15 13 8 -4z m7778 -382 c13 -16 12 -17 -3 -4 -10
7 -18 15 -18 17 0 8 8 3 21 -13z m280 -390 c13 -16 12 -17 -3 -4 -10 7 -18 15
-18 17 0 8 8 3 21 -13z m806 -2139 c-3 -3 -12 -4 -19 -1 -8 3 -5 6 6 6 11 1
17 -2 13 -5z m0 -1441 c0 -9 -4 -10 -14 -2 -7 6 -13 12 -13 14 0 1 6 2 13 2 8
0 14 -6 14 -14z m-2411 -3711 c-17 -16 -18 -16 -5 5 7 12 15 20 18 17 3 -2 -3
-12 -13 -22z m-91 -52 c-3 -5 -12 -10 -18 -10 -7 0 -6 4 3 10 19 12 23 12 15
0z m-4958 -202 c-3 -8 -6 -5 -6 6 -1 11 2 17 5 13 3 -3 4 -12 1 -19z m1150
-393 c0 -8 -4 -12 -9 -9 -5 3 -6 10 -3 15 9 13 12 11 12 -6z m504 -88 c-10 -9
-11 -8 -5 6 3 10 9 15 12 12 3 -3 0 -11 -7 -18z"/>
<path d="M4626 10933 c-6 -14 -5 -15 5 -6 7 7 10 15 7 18 -3 3 -9 -2 -12 -12z"/>
<path d="M4506 10893 c-6 -14 -5 -15 5 -6 7 7 10 15 7 18 -3 3 -9 -2 -12 -12z"/>
<path d="M10665 8400 c3 -5 8 -10 11 -10 2 0 4 5 4 10 0 6 -5 10 -11 10 -5 0
-7 -4 -4 -10z"/>
<path d="M10915 7841 c-3 -5 -2 -12 3 -15 5 -3 9 1 9 9 0 17 -3 19 -12 6z"/>
<path d="M1080 7469 c0 -5 5 -7 10 -4 6 3 10 8 10 11 0 2 -4 4 -10 4 -5 0 -10
-5 -10 -11z"/>
<path d="M11065 7360 c3 -5 8 -10 11 -10 2 0 4 5 4 10 0 6 -5 10 -11 10 -5 0
-7 -4 -4 -10z"/>
<path d="M890 5161 c0 -6 4 -13 10 -16 6 -3 7 1 4 9 -7 18 -14 21 -14 7z"/>
<path d="M1100 4340 c0 -5 5 -10 11 -10 5 0 7 5 4 10 -3 6 -8 10 -11 10 -2 0
-4 -4 -4 -10z"/>
<path d="M1170 4120 c0 -5 5 -10 11 -10 5 0 7 5 4 10 -3 6 -8 10 -11 10 -2 0
-4 -4 -4 -10z"/>
<path d="M2340 2260 c0 -5 5 -10 11 -10 5 0 7 5 4 10 -3 6 -8 10 -11 10 -2 0
-4 -4 -4 -10z"/>
<path d="M2690 1950 c0 -5 5 -10 11 -10 5 0 7 5 4 10 -3 6 -8 10 -11 10 -2 0
-4 -4 -4 -10z"/>
<path d="M4690 900 c0 -5 5 -10 11 -10 5 0 7 5 4 10 -3 6 -8 10 -11 10 -2 0
-4 -4 -4 -10z"/>
<path d="M4756 882 c-3 -5 1 -9 9 -9 8 0 12 4 9 9 -3 4 -7 8 -9 8 -2 0 -6 -4
-9 -8z"/>
<path d="M6426 752 c-3 -5 1 -9 9 -9 8 0 12 4 9 9 -3 4 -7 8 -9 8 -2 0 -6 -4
-9 -8z"/>
</g>
</svg>
